<mxfile host="app.diagrams.net" modified="2023-03-23T19:37:44.129Z" agent="Mozilla/5.0 (Macintosh; Intel Mac OS X 10_15_7) AppleWebKit/605.1.15 (KHTML, like Gecko) Version/16.3 Safari/605.1.15" etag="XnbZIwym1MTuTpX4Abu7" version="21.1.0" type="github">
  <diagram name="Page-1" id="Khhnbt5kXlonaw1C8Nmn">
    <mxGraphModel dx="694" dy="573" grid="1" gridSize="10" guides="1" tooltips="1" connect="1" arrows="1" fold="1" page="1" pageScale="1" pageWidth="850" pageHeight="1100" math="0" shadow="0">
      <root>
        <mxCell id="0" />
        <mxCell id="1" parent="0" />
        <mxCell id="WZlTyolC18Vp-f5ijgWd-1" value="" style="strokeColor=#666666;html=1;verticalLabelPosition=bottom;labelBackgroundColor=#ffffff;verticalAlign=top;outlineConnect=0;shadow=0;dashed=0;shape=mxgraph.rackGeneral.rackCabinet3;fillColor2=#f4f4f4;container=1;collapsible=0;childLayout=rack;allowGaps=1;marginLeft=33;marginRight=9;marginTop=21;marginBottom=22;textColor=#666666;numDisp=ascend;" vertex="1" parent="1">
          <mxGeometry x="260" y="190" width="204" height="219" as="geometry" />
        </mxCell>
        <mxCell id="WZlTyolC18Vp-f5ijgWd-2" value="" style="strokeColor=#666666;html=1;verticalLabelPosition=bottom;labelBackgroundColor=#ffffff;verticalAlign=top;outlineConnect=0;shadow=0;dashed=0;shape=mxgraph.rackGeneral.rackCabinet3;fillColor2=#f4f4f4;container=1;collapsible=0;childLayout=rack;allowGaps=1;marginLeft=9;marginRight=9;marginTop=21;marginBottom=22;textColor=#666666;numDisp=off;" vertex="1" parent="1">
          <mxGeometry x="270" y="190" width="180" height="219" as="geometry" />
        </mxCell>
        <mxCell id="WZlTyolC18Vp-f5ijgWd-3" value="" style="strokeColor=#666666;html=1;verticalLabelPosition=bottom;labelBackgroundColor=#ffffff;verticalAlign=top;outlineConnect=0;shadow=0;dashed=0;shape=mxgraph.rackGeneral.rackCabinet3;fillColor2=#f4f4f4;container=1;collapsible=0;childLayout=rack;allowGaps=1;marginLeft=33;marginRight=9;marginTop=21;marginBottom=22;textColor=#666666;numDisp=ascend;" vertex="1" parent="1">
          <mxGeometry x="260" y="190" width="204" height="219" as="geometry" />
        </mxCell>
      </root>
    </mxGraphModel>
  </diagram>
</mxfile>
